<?xml version="1.0" encoding="UTF-8" standalone="no"?>
<!DOCTYPE svg PUBLIC "-//W3C//DTD SVG 1.1//EN"
 "http://www.w3.org/Graphics/SVG/1.1/DTD/svg11.dtd">
<!-- Generated by graphviz version 2.43.0 (0)
 -->
<!-- Title: classes Pages: 1 -->
<svg width="664pt" height="649pt"
 viewBox="0.00 0.00 663.50 649.00" xmlns="http://www.w3.org/2000/svg" xmlns:xlink="http://www.w3.org/1999/xlink">
<g id="graph0" class="graph" transform="scale(1 1) rotate(0) translate(4 645)">
<title>classes</title>
<polygon fill="white" stroke="transparent" points="-4,4 -4,-645 659.5,-645 659.5,4 -4,4"/>
<!-- ice_commander.DronecanCommander -->
<g id="node1" class="node">
<title>ice_commander.DronecanCommander</title>
<polygon fill="none" stroke="black" points="0,-38 0,-152 181,-152 181,-38 0,-38"/>
<text text-anchor="start" x="30" y="-136.8" font-family="Times,serif" font-size="14.00">DronecanCommander</text>
<polyline fill="none" stroke="black" points="0,-129 181,-129 "/>
<text text-anchor="start" x="43" y="-113.8" font-family="Times,serif" font-size="14.00">node : NoneType</text>
<polyline fill="none" stroke="black" points="0,-106 181,-106 "/>
<text text-anchor="start" x="8" y="-90.8" font-family="Times,serif" font-size="14.00">change_file(): None</text>
<text text-anchor="start" x="8" y="-75.8" font-family="Times,serif" font-size="14.00">connect(): None</text>
<text text-anchor="start" x="8" y="-60.8" font-family="Times,serif" font-size="14.00">send_file(filename: str): None</text>
<text text-anchor="start" x="8" y="-45.8" font-family="Times,serif" font-size="14.00">spin(): None</text>
</g>
<!-- ice_commander.ICECommander -->
<g id="node2" class="node">
<title>ice_commander.ICECommander</title>
<polygon fill="none" stroke="black" points="183,-241.5 183,-640.5 472,-640.5 472,-241.5 183,-241.5"/>
<text text-anchor="start" x="282" y="-625.3" font-family="Times,serif" font-size="14.00">ICECommander</text>
<polyline fill="none" stroke="black" points="183,-617.5 472,-617.5 "/>
<text text-anchor="start" x="191" y="-602.3" font-family="Times,serif" font-size="14.00">configuration : Optional[IceRunnerConfiguration]</text>
<text text-anchor="start" x="191" y="-587.3" font-family="Times,serif" font-size="14.00">dronecan_commander</text>
<text text-anchor="start" x="191" y="-572.3" font-family="Times,serif" font-size="14.00">flags</text>
<text text-anchor="start" x="191" y="-557.3" font-family="Times,serif" font-size="14.00">fuel_level_ex</text>
<text text-anchor="start" x="191" y="-542.3" font-family="Times,serif" font-size="14.00">last_button_cmd : int</text>
<text text-anchor="start" x="191" y="-527.3" font-family="Times,serif" font-size="14.00">mode</text>
<text text-anchor="start" x="191" y="-512.3" font-family="Times,serif" font-size="14.00">pid_controller</text>
<text text-anchor="start" x="191" y="-497.3" font-family="Times,serif" font-size="14.00">prev_report_time : int</text>
<text text-anchor="start" x="191" y="-482.3" font-family="Times,serif" font-size="14.00">prev_state_report_time : int</text>
<text text-anchor="start" x="191" y="-467.3" font-family="Times,serif" font-size="14.00">prev_waiting_state_time : int</text>
<text text-anchor="start" x="191" y="-452.3" font-family="Times,serif" font-size="14.00">reporting_period : float</text>
<text text-anchor="start" x="191" y="-437.3" font-family="Times,serif" font-size="14.00">rp_state</text>
<text text-anchor="start" x="191" y="-422.3" font-family="Times,serif" font-size="14.00">rp_state_start</text>
<text text-anchor="start" x="191" y="-407.3" font-family="Times,serif" font-size="14.00">start_time : int</text>
<polyline fill="none" stroke="black" points="183,-399.5 472,-399.5 "/>
<text text-anchor="start" x="223.5" y="-384.3" font-family="Times,serif" font-size="14.00">check_buttons()</text>
<text text-anchor="start" x="223.5" y="-369.3" font-family="Times,serif" font-size="14.00">check_conditions(): int</text>
<text text-anchor="start" x="223.5" y="-354.3" font-family="Times,serif" font-size="14.00">check_mqtt_cmd()</text>
<text text-anchor="start" x="223.5" y="-339.3" font-family="Times,serif" font-size="14.00">report_state(): None</text>
<text text-anchor="start" x="223.5" y="-324.3" font-family="Times,serif" font-size="14.00">report_status(): None</text>
<text text-anchor="start" x="223.5" y="-309.3" font-family="Times,serif" font-size="14.00">run(): None</text>
<text text-anchor="start" x="223.5" y="-294.3" font-family="Times,serif" font-size="14.00">send_log(): None</text>
<text text-anchor="start" x="223.5" y="-279.3" font-family="Times,serif" font-size="14.00">set_command(): None</text>
<text text-anchor="start" x="223.5" y="-264.3" font-family="Times,serif" font-size="14.00">set_state(cond_exceeded: bool): None</text>
<text text-anchor="start" x="223.5" y="-249.3" font-family="Times,serif" font-size="14.00">spin(): None</text>
</g>
<!-- ice_commander.DronecanCommander&#45;&gt;ice_commander.ICECommander -->
<g id="edge4" class="edge">
<title>ice_commander.DronecanCommander&#45;&gt;ice_commander.ICECommander</title>
<path fill="none" stroke="black" d="M117.96,-152.19C129.64,-174.7 143.91,-200.57 158.5,-223 164.13,-231.65 170.01,-240.39 176.06,-249.14"/>
<polygon fill="none" stroke="black" points="176.09,-249.18 182.81,-251.81 182.97,-259.02 176.25,-256.39 176.09,-249.18"/>
<text text-anchor="middle" x="219.5" y="-211.8" font-family="Times,serif" font-size="14.00" fill="green">dronecan_commander</text>
</g>
<!-- ice_commander.ICEFlags -->
<g id="node3" class="node">
<title>ice_commander.ICEFlags</title>
<polygon fill="none" stroke="black" points="199.5,-15.5 199.5,-174.5 321.5,-174.5 321.5,-15.5 199.5,-15.5"/>
<text text-anchor="start" x="234.5" y="-159.3" font-family="Times,serif" font-size="14.00">ICEFlags</text>
<polyline fill="none" stroke="black" points="199.5,-151.5 321.5,-151.5 "/>
<text text-anchor="start" x="207.5" y="-136.3" font-family="Times,serif" font-size="14.00">rpm_ex : bool</text>
<text text-anchor="start" x="207.5" y="-121.3" font-family="Times,serif" font-size="14.00">rpm_min_ex : bool</text>
<text text-anchor="start" x="207.5" y="-106.3" font-family="Times,serif" font-size="14.00">temp_ex : bool</text>
<text text-anchor="start" x="207.5" y="-91.3" font-family="Times,serif" font-size="14.00">throttle_ex : bool</text>
<text text-anchor="start" x="207.5" y="-76.3" font-family="Times,serif" font-size="14.00">time_ex : bool</text>
<text text-anchor="start" x="207.5" y="-61.3" font-family="Times,serif" font-size="14.00">vibration_ex : bool</text>
<text text-anchor="start" x="207.5" y="-46.3" font-family="Times,serif" font-size="14.00">vin_ex : bool</text>
<polyline fill="none" stroke="black" points="199.5,-38.5 321.5,-38.5 "/>
<text text-anchor="start" x="258.5" y="-23.3" font-family="Times,serif" font-size="14.00"> </text>
</g>
<!-- ice_commander.ICEFlags&#45;&gt;ice_commander.ICECommander -->
<g id="edge1" class="edge">
<title>ice_commander.ICEFlags&#45;&gt;ice_commander.ICECommander</title>
<path fill="none" stroke="black" d="M275.87,-174.92C279.13,-191.68 282.73,-210.12 286.45,-229.23"/>
<polygon fill="black" stroke="black" points="286.49,-229.43 291.56,-234.56 288.78,-241.21 283.71,-236.09 286.49,-229.43"/>
<text text-anchor="middle" x="298" y="-211.8" font-family="Times,serif" font-size="14.00" fill="green">flags</text>
</g>
<!-- ice_commander.ICERunnerMode -->
<g id="node4" class="node">
<title>ice_commander.ICERunnerMode</title>
<polygon fill="none" stroke="black" points="339.5,-60.5 339.5,-129.5 449.5,-129.5 449.5,-60.5 339.5,-60.5"/>
<text text-anchor="start" x="347.5" y="-114.3" font-family="Times,serif" font-size="14.00">ICERunnerMode</text>
<polyline fill="none" stroke="black" points="339.5,-106.5 449.5,-106.5 "/>
<text text-anchor="start" x="379" y="-91.3" font-family="Times,serif" font-size="14.00">name</text>
<polyline fill="none" stroke="black" points="339.5,-83.5 449.5,-83.5 "/>
<text text-anchor="start" x="392.5" y="-68.3" font-family="Times,serif" font-size="14.00"> </text>
</g>
<!-- ice_commander.ICERunnerMode&#45;&gt;ice_commander.ICECommander -->
<g id="edge2" class="edge">
<title>ice_commander.ICERunnerMode&#45;&gt;ice_commander.ICECommander</title>
<path fill="none" stroke="black" d="M387.95,-129.61C383.12,-154.41 376.1,-190.47 368.54,-229.31"/>
<polygon fill="black" stroke="black" points="368.52,-229.38 371.3,-236.04 366.23,-241.16 363.45,-234.51 368.52,-229.38"/>
<text text-anchor="middle" x="386" y="-211.8" font-family="Times,serif" font-size="14.00" fill="green">mode</text>
</g>
<!-- ice_commander.PIDController -->
<g id="node5" class="node">
<title>ice_commander.PIDController</title>
<polygon fill="none" stroke="black" points="467.5,-0.5 467.5,-189.5 655.5,-189.5 655.5,-0.5 467.5,-0.5"/>
<text text-anchor="start" x="522.5" y="-174.3" font-family="Times,serif" font-size="14.00">PIDController</text>
<polyline fill="none" stroke="black" points="467.5,-166.5 655.5,-166.5 "/>
<text text-anchor="start" x="512" y="-151.3" font-family="Times,serif" font-size="14.00">drpm : int</text>
<text text-anchor="start" x="512" y="-136.3" font-family="Times,serif" font-size="14.00">error : int</text>
<text text-anchor="start" x="512" y="-121.3" font-family="Times,serif" font-size="14.00">integral : int</text>
<text text-anchor="start" x="512" y="-106.3" font-family="Times,serif" font-size="14.00">kd : float</text>
<text text-anchor="start" x="512" y="-91.3" font-family="Times,serif" font-size="14.00">ki : float</text>
<text text-anchor="start" x="512" y="-76.3" font-family="Times,serif" font-size="14.00">kp : float</text>
<text text-anchor="start" x="512" y="-61.3" font-family="Times,serif" font-size="14.00">prev_error : int</text>
<text text-anchor="start" x="512" y="-46.3" font-family="Times,serif" font-size="14.00">prev_time : int</text>
<text text-anchor="start" x="512" y="-31.3" font-family="Times,serif" font-size="14.00">seeked_value : int</text>
<polyline fill="none" stroke="black" points="467.5,-23.5 655.5,-23.5 "/>
<text text-anchor="start" x="475.5" y="-8.3" font-family="Times,serif" font-size="14.00">get_pid_command(val: int): int</text>
</g>
<!-- ice_commander.PIDController&#45;&gt;ice_commander.ICECommander -->
<g id="edge3" class="edge">
<title>ice_commander.PIDController&#45;&gt;ice_commander.ICECommander</title>
<path fill="none" stroke="black" d="M497.87,-189.55C488.85,-202.8 479.3,-216.85 469.5,-231.25"/>
<polygon fill="black" stroke="black" points="469.42,-231.36 469.36,-238.57 462.67,-241.28 462.74,-234.07 469.42,-231.36"/>
<text text-anchor="middle" x="517" y="-211.8" font-family="Times,serif" font-size="14.00" fill="green">pid_controller</text>
</g>
</g>
</svg>
